<svg width="64" height="49" viewBox="0 0 64 49" fill="none" xmlns="http://www.w3.org/2000/svg">
<path d="M57.9999 48.5521C61.2499 48.5521 63.9999 45.9271 63.9999 42.5521V6.55206C63.9999 3.30206 61.2499 0.552063 57.9999 0.552063H5.99995C2.62495 0.552063 -5.34058e-05 3.30206 -5.34058e-05 6.55206V42.5521C-5.34058e-05 45.9271 2.62495 48.5521 5.99995 48.5521H57.9999ZM13.9999 7.55206C17.7499 7.55206 20.9999 10.8021 20.9999 14.5521C20.9999 18.4271 17.7499 21.5521 13.9999 21.5521C10.1249 21.5521 6.99995 18.4271 6.99995 14.5521C6.99995 10.8021 10.1249 7.55206 13.9999 7.55206ZM7.99995 40.5521V34.5521L16.8749 25.6771C17.4999 25.0521 18.3749 25.0521 18.9999 25.6771L25.9999 32.5521L42.8749 15.6771C43.4999 15.0521 44.3749 15.0521 44.9999 15.6771L55.9999 26.5521V40.5521H7.99995Z" fill="#2B2B2B"/>
</svg>
